# xmcd CD database file
#
# Track frame offsets:
#	150
#	22898
#	44882
#	67908
#	85433
#	102875
#	124899
#	147376
#	171679
#	197616
#	213841
#	225805
#
# Disc length: 3219 seconds
#
# Revision: 0
# Processed by: cddbd v1.5.1PL0 Copyright (c) Steve Scherf et al.
# Submitted via: CDex 1.51
#
DISCID=a70c910c
DTITLE=Catamenia - Winternight Tragedies
DYEAR=2005
DGENRE=General Metal
TTITLE0=The Heart Of Darkness
TTITLE1=Verikansa
TTITLE2=Strength And Honor
TTITLE3=The Crystal Stream
TTITLE4=Kaamos Warrior
TTITLE5=My Blood Stained Path
TTITLE6=Perinto Pohjolan
TTITLE7=Iced Over
TTITLE8=The Ancient
TTITLE9=Fuel For Hatred
TTITLE10=Talvijon Varjot
TTITLE11=Dreams Of Winterland
EXTD=YEAR: 2005
EXTT0=
EXTT1=
EXTT2=
EXTT3=
EXTT4=
EXTT5=
EXTT6=
EXTT7=
EXTT8=
EXTT9=
EXTT10=
EXTT11=
PLAYORDER=
